<svg xmlns="http://www.w3.org/2000/svg" xmlns:svg="http://www.w3.org/2000/svg" id="svg4684" width="89mm" height="89mm" version="1.1" viewBox="0 0 89 89"><metadata id="metadata4690"/><g id="layer1" transform="translate(5.4566873e-7,-121)"><path style="fill:#556ae6;fill-opacity:1;stroke:none;stroke-width:7.08661413;stroke-miterlimit:4;stroke-dasharray:none" id="path5303" d="m 59.451523,122.95775 a 44.775326,44.775326 0 0 0 -21.03861,-2.01136 l -0.6557,4.60251 a 23.524902,23.524902 0 0 1 4.20498,3.77358 l 6.73498,-1.78044 a 29.907628,29.907628 0 0 1 4.33792,8.99185 l -5.54364,4.16221 a 23.524902,23.524902 0 0 1 0.32108,5.63603 l 6.03185,3.50988 a 29.907628,29.907628 0 0 1 -1.23578,4.84982 29.907628,29.907628 0 0 1 -2.06484,4.5672 l -6.85567,-0.97589 a 23.524902,23.524902 0 0 1 -3.77339,4.20446 l 1.78078,6.73569 a 29.907628,29.907628 0 0 1 -8.99151,4.33863 l -4.16256,-5.54435 a 23.524902,23.524902 0 0 1 -5.63602,0.32108 l -3.50989,6.03185 a 29.907628,29.907628 0 0 1 -4.849808,-1.23578 29.907628,29.907628 0 0 1 -4.5675477,-2.06554 l 0.9757077,-6.85515 a 23.524902,23.524902 0 0 1 -4.2041157,-3.7727 l -6.64489998,1.75628 a 44.775326,44.775326 0 0 0 29.97375368,45.3569 44.775326,44.775326 0 0 0 27.28111,0.61075 l -0.0231,-0.19065 a 23.524902,23.524902 0 0 1 -5.04173,-2.54001 l -6.05573,3.46919 a 29.907628,29.907628 0 0 1 -3.58191,-3.49598 29.907628,29.907628 0 0 1 -2.9233,-4.07194 l 4.27314,-5.44883 a 23.524902,23.524902 0 0 1 -1.75454,-5.36936 l -6.72324,-1.82616 a 29.907628,29.907628 0 0 1 0.73798,-9.9567 l 6.88304,-0.8322 a 23.524902,23.524902 0 0 1 2.54001,-5.04173 l -3.46885,-6.05502 a 29.907628,29.907628 0 0 1 3.49494,-3.58228 29.907628,29.907628 0 0 1 4.07194,-2.92331 l 5.44901,4.27262 a 23.524902,23.524902 0 0 1 5.36988,-1.75436 l 1.82616,-6.72324 a 29.907628,29.907628 0 0 1 9.95599,0.73833 l 0.8329,6.8827 a 23.524902,23.524902 0 0 1 5.04121,2.53983 l 6.055556,-3.46867 a 29.907628,29.907628 0 0 1 3.58227,3.49494 29.907628,29.907628 0 0 1 1.52975,1.98522 44.775326,44.775326 0 0 0 -29.979576,-45.3099 z m -29.93126,7.04882 a 15.745845,15.745845 0 0 0 -20.0396247,9.71017 15.745845,15.745845 0 0 0 9.7101647,20.03962 15.745845,15.745845 0 0 0 20.03963,-9.71016 15.745845,15.745845 0 0 0 -9.71017,-20.03963 z m 59.360536,42.82725 -2.32895,2.97009 a 23.524902,23.524902 0 0 1 0.99553,2.56761 44.775326,44.775326 0 0 0 1.33342,-5.5377 z m -19.143966,-2.09047 a 15.745845,15.745845 0 0 0 -14.75675,3.19169 15.745845,15.745845 0 0 0 -1.61104,22.20982 15.745845,15.745845 0 0 0 21.90246,1.85092 44.775326,44.775326 0 0 0 2.25015,-2.25582 15.745845,15.745845 0 0 0 -0.3321,-20.19458 15.745845,15.745845 0 0 0 -7.45272,-4.80203 z"/></g></svg>